<svg width="15" height="15" viewBox="0 0 15 15" fill="none" xmlns="http://www.w3.org/2000/svg">
<path d="M7.5 14.2188C3.79375 14.2188 0.78125 11.2063 0.78125 7.5C0.78125 3.79375 3.79375 0.78125 7.5 0.78125C11.2063 0.78125 14.2188 3.79375 14.2188 7.5C14.2188 11.2063 11.2063 14.2188 7.5 14.2188ZM7.5 1.71875C4.3125 1.71875 1.71875 4.3125 1.71875 7.5C1.71875 10.6875 4.3125 13.2812 7.5 13.2812C10.6875 13.2812 13.2812 10.6875 13.2812 7.5C13.2812 4.3125 10.6875 1.71875 7.5 1.71875Z" fill="white"/>
<path d="M6.61252 9.7375C6.48752 9.7375 6.36877 9.6875 6.28127 9.6L4.51252 7.83125C4.33127 7.65 4.33127 7.35 4.51252 7.16875C4.69377 6.9875 4.99377 6.9875 5.17502 7.16875L6.61252 8.60625L9.82502 5.39375C10.0063 5.2125 10.3063 5.2125 10.4875 5.39375C10.6688 5.575 10.6688 5.875 10.4875 6.05625L6.94377 9.6C6.85627 9.6875 6.73752 9.7375 6.61252 9.7375Z" fill="white"/>
</svg>
